<svg xmlns="http://www.w3.org/2000/svg" version="1.1" xmlns:xlink="http://www.w3.org/1999/xlink" xmlns:svgjs="http://svgjs.dev/svgjs" width="1920" height="1080" preserveAspectRatio="none" viewBox="0 0 1920 1080"><g mask="url(&quot;#SvgjsMask1000&quot;)" fill="none"><rect width="1920" height="1080" x="0" y="0" fill="#0e2a47"></rect><use xlink:href="#SvgjsG1007" transform="translate(0, 0)" fill="#0f457b"></use><use xlink:href="#SvgjsG1007" transform="translate(0, 342)" fill="#0f457b"></use><use xlink:href="#SvgjsG1007" transform="translate(0, 684)" fill="#0f457b"></use><use xlink:href="#SvgjsG1007" transform="translate(0, 1026)" fill="#0f457b"></use><use xlink:href="#SvgjsG1007" transform="translate(342, 0)" fill="#0f457b"></use><use xlink:href="#SvgjsG1007" transform="translate(342, 342)" fill="#0f457b"></use><use xlink:href="#SvgjsG1007" transform="translate(342, 684)" fill="#0f457b"></use><use xlink:href="#SvgjsG1007" transform="translate(342, 1026)" fill="#0f457b"></use><use xlink:href="#SvgjsG1007" transform="translate(684, 0)" fill="#0f457b"></use><use xlink:href="#SvgjsG1007" transform="translate(684, 342)" fill="#0f457b"></use><use xlink:href="#SvgjsG1007" transform="translate(684, 684)" fill="#0f457b"></use><use xlink:href="#SvgjsG1007" transform="translate(684, 1026)" fill="#0f457b"></use><use xlink:href="#SvgjsG1007" transform="translate(1026, 0)" fill="#0f457b"></use><use xlink:href="#SvgjsG1007" transform="translate(1026, 342)" fill="#0f457b"></use><use xlink:href="#SvgjsG1007" transform="translate(1026, 684)" fill="#0f457b"></use><use xlink:href="#SvgjsG1007" transform="translate(1026, 1026)" fill="#0f457b"></use><use xlink:href="#SvgjsG1007" transform="translate(1368, 0)" fill="#0f457b"></use><use xlink:href="#SvgjsG1007" transform="translate(1368, 342)" fill="#0f457b"></use><use xlink:href="#SvgjsG1007" transform="translate(1368, 684)" fill="#0f457b"></use><use xlink:href="#SvgjsG1007" transform="translate(1368, 1026)" fill="#0f457b"></use><use xlink:href="#SvgjsG1007" transform="translate(1710, 0)" fill="#0f457b"></use><use xlink:href="#SvgjsG1007" transform="translate(1710, 342)" fill="#0f457b"></use><use xlink:href="#SvgjsG1007" transform="translate(1710, 684)" fill="#0f457b"></use><use xlink:href="#SvgjsG1007" transform="translate(1710, 1026)" fill="#0f457b"></use></g><defs><mask id="SvgjsMask1000"><rect width="1920" height="1080" fill="#ffffff"></rect></mask><g id="SvgjsG1005"><path d="M6.498 9.304L12.139 3.663l1.565 1.566-5.641 5.641z"></path><path d="M6.8 0.457h2.541v8.028H6.8z"></path><path d="M8.072 10.876L2.429 5.238l1.563-1.566L9.636 9.313zM1.2 13.277h13.733v2.266H1.2z"></path><path d="M0.733 9.143h2.267v6.4h-2.267z m12.267 0h2.267v6.4h-2.267z"></path></g><g id="SvgjsG1001"><path d="M7.713 15.485C3.459 15.485 0 12.025 0 7.768 0 3.513 3.459 0.051 7.713 0.051S15.432 3.513 15.432 7.768c0 4.257-3.465 7.716-7.719 7.717z m0-1.91c3.201 0 5.81-2.604 5.81-5.809 0-3.199-2.61-5.807-5.81-5.807-3.202 0-5.804 2.609-5.804 5.807-0.001 3.206 2.602 5.809 5.804 5.809z"></path><path d="M7.753 8.787a0.574 0.574 0 0 1-0.554-0.042 0.578 0.578 0 0 1-0.259-0.399L6.931 3.862a0.58 0.58 0 0 1 1.162 0v3.478l2.975-1.4a0.578 0.578 0 0 1 0.773 0.275c0.138 0.292 0.011 0.637-0.276 0.774l-3.81 1.798z"></path></g><g id="SvgjsG1003"><path d="M15.233 9.431c0.295 0 0.569-0.239 0.61-0.532 0 0 0.056-0.411 0.056-0.899s-0.056-0.899-0.056-0.899c-0.041-0.292-0.315-0.531-0.61-0.53h-1.524c-0.295 0-0.602-0.188-0.681-0.418s-0.188-0.967 0.021-1.176l1.078-1.077c0.209-0.209 0.225-0.565 0.036-0.792l-1.268-1.268c-0.227-0.189-0.583-0.173-0.792 0.036l-1.078 1.077c-0.208 0.209-0.556 0.293-0.772 0.187s-0.822-0.552-0.821-0.847V0.767c0-0.295-0.239-0.569-0.531-0.61 0 0-0.411-0.057-0.9-0.056s-0.899 0.057-0.899 0.056c-0.293 0.04-0.532 0.315-0.532 0.61v1.524c0 0.295-0.188 0.601-0.418 0.681s-0.967 0.188-1.176-0.021l-1.078-1.078C3.689 1.665 3.333 1.649 3.107 1.837l-1.268 1.268c-0.189 0.227-0.173 0.583 0.036 0.792l1.077 1.078c0.209 0.209 0.293 0.556 0.187 0.772s-0.552 0.822-0.847 0.822H0.767c-0.295 0-0.569 0.239-0.61 0.531 0 0-0.057 0.411-0.056 0.899s0.057 0.899 0.056 0.9c0.04 0.293 0.315 0.532 0.61 0.532h1.525c0.295 0 0.601 0.188 0.681 0.417 0.079 0.23 0.188 0.967-0.02 1.176l-1.078 1.077C1.667 12.311 1.651 12.667 1.84 12.893l1.267 1.268c0.227 0.189 0.583 0.173 0.792-0.036l1.077-1.077c0.209-0.208 0.556-0.292 0.772-0.187s0.821 0.553 0.822 0.848v1.524c0 0.295 0.239 0.569 0.532 0.61 0 0 0.411 0.057 0.899 0.057s0.899-0.056 0.899-0.057c0.293-0.04 0.531-0.315 0.532-0.609v-1.524c0-0.295 0.188-0.602 0.418-0.681 0.23-0.079 0.967-0.188 1.176 0.021l1.077 1.077c0.209 0.209 0.565 0.225 0.792 0.036l1.268-1.267c0.189-0.227 0.173-0.583-0.036-0.792l-1.078-1.077c-0.209-0.209-0.293-0.557-0.186-0.773 0.106-0.216 0.552-0.822 0.847-0.822h1.525zM8 10.892c-1.597 0-2.891-1.294-2.891-2.892 0-1.596 1.295-2.891 2.891-2.891S10.892 6.404 10.892 8 9.597 10.892 8 10.892z"></path></g><g id="SvgjsG1002"><path d="M8 2.022C3.815 2.022 0.422 4.579 0.422 7.733c0 1.544 0.814 2.944 2.135 3.972l0.003 3.427 3.961-1.798c0.479 0.071 0.973 0.11 1.48 0.11 4.185 0 7.578-2.557 7.578-5.711 0-3.154-3.392-5.711-7.577-5.711zM4.81 8.933a1.067 1.067 0 1 1 0-2.133 1.067 1.067 0 0 1 0 2.133z m3.186 0a1.067 1.067 0 1 1 0-2.133 1.067 1.067 0 0 1 0 2.133z m3.143 0c-0.589 0-1.067-0.478-1.067-1.066s0.477-1.067 1.067-1.067 1.067 0.478 1.067 1.067a1.067 1.067 0 0 1-1.067 1.066z"></path></g><g id="SvgjsG1004"><path d="M8 2.545C2.984 2.545 0.007 8 0.007 8S2.984 13.455 8 13.455 15.993 8 15.993 8 13.016 2.545 8 2.545z m0 8.71c-1.795 0-3.255-1.46-3.255-3.255S6.205 4.745 8 4.745 11.254 6.205 11.254 8s-1.46 3.255-3.254 3.255z"></path><path d="M6.079 8.078a1.921 1.921 0 1 0 3.842 0 1.921 1.921 0 1 0-3.842 0"></path></g><g id="SvgjsG1006"><path d="M1.28 6.244l1.052 0.608 0.281 0.163-0.821 1.419a0.83 0.83 0 0 0-0.114 0.414c0 0.139 0.036 0.277 0.11 0.402 0 0 0.718 1.25 1.305 2.261 0.043-0.142 0.096-0.281 0.171-0.414L4.871 8.32l0.277 0.16 1.056 0.612-1.642-2.845L1.28 6.244z" fill-rule="evenodd"></path><path d="M4.42 10.222l-0.665 1.149a0.949 0.949 0 0 0-0.135 0.494 0.96 0.96 0 0 0 0.977 0.969H7.84V10.222H4.42zM13.049 2.048l-1.054 0.608-0.279 0.164-0.818-1.423a0.804 0.804 0 0 0-0.704-0.412h-2.614c0.103 0.107 0.196 0.222 0.271 0.355l1.605 2.777-0.281 0.164-1.056 0.608h3.28L13.049 2.048z" fill-rule="evenodd"></path><path d="M8.036 2.773L7.371 1.625A1.019 1.019 0 0 0 7.012 1.262 1.031 1.031 0 0 0 6.524 1.127a0.969 0.969 0 0 0-0.835 0.498l-1.627 2.809 2.263 1.301c0.244-0.423 1.561-2.702 1.707-2.962m2.699 11.561v-1.541l1.635 0.003a0.811 0.811 0 0 0 0.418-0.113 0.775 0.775 0 0 0 0.302-0.295l1.303-2.258c-0.142 0.028-0.29 0.057-0.439 0.057H10.734v-0.324l0.004-1.218-1.646 2.845 1.639 2.844z" fill-rule="evenodd"></path><path d="M12.608 9.628h1.326a0.988 0.988 0 0 0 0.854-0.485 0.978 0.978 0 0 0-0.008-0.972l-1.621-2.813-2.261 1.305 1.71 2.965" fill-rule="evenodd"></path></g><g id="SvgjsG1007"><use xlink:href="#SvgjsG1001" transform="translate(0, 0) scale(1.8)" fill="#0f457b"></use><use xlink:href="#SvgjsG1001" transform="translate(0, 34.2) scale(1.8)" fill="#0f457b"></use><use xlink:href="#SvgjsG1002" transform="translate(0, 68.4) scale(1.8)" fill="#0f457b"></use><use xlink:href="#SvgjsG1003" transform="translate(0, 102.60000000000001) scale(1.8)" fill="#0f457b"></use><use xlink:href="#SvgjsG1001" transform="translate(0, 136.8) scale(1.8)" fill="#0f457b"></use><use xlink:href="#SvgjsG1004" transform="translate(0, 171) scale(1.8)" fill="#0f457b"></use><use xlink:href="#SvgjsG1001" transform="translate(0, 205.20000000000002) scale(1.8)" fill="#0f457b"></use><use xlink:href="#SvgjsG1003" transform="translate(0, 239.40000000000003) scale(1.8)" fill="#0f457b"></use><use xlink:href="#SvgjsG1002" transform="translate(0, 273.6) scale(1.8)" fill="#0f457b"></use><use xlink:href="#SvgjsG1003" transform="translate(0, 307.8) scale(1.8)" fill="#0f457b"></use><use xlink:href="#SvgjsG1005" transform="translate(34.2, 0) scale(1.8)" fill="#0f457b"></use><use xlink:href="#SvgjsG1001" transform="translate(34.2, 34.2) scale(1.8)" fill="#0f457b"></use><use xlink:href="#SvgjsG1005" transform="translate(34.2, 68.4) scale(1.8)" fill="#0f457b"></use><use xlink:href="#SvgjsG1004" transform="translate(34.2, 102.60000000000001) scale(1.8)" fill="#0f457b"></use><use xlink:href="#SvgjsG1006" transform="translate(34.2, 136.8) scale(1.8)" fill="#0f457b"></use><use xlink:href="#SvgjsG1002" transform="translate(34.2, 171) scale(1.8)" fill="#0f457b"></use><use xlink:href="#SvgjsG1001" transform="translate(34.2, 205.20000000000002) scale(1.8)" fill="#0f457b"></use><use xlink:href="#SvgjsG1002" transform="translate(34.2, 239.40000000000003) scale(1.8)" fill="#0f457b"></use><use xlink:href="#SvgjsG1005" transform="translate(34.2, 273.6) scale(1.8)" fill="#0f457b"></use><use xlink:href="#SvgjsG1006" transform="translate(34.2, 307.8) scale(1.8)" fill="#0f457b"></use><use xlink:href="#SvgjsG1002" transform="translate(68.4, 0) scale(1.8)" fill="#0f457b"></use><use xlink:href="#SvgjsG1002" transform="translate(68.4, 34.2) scale(1.8)" fill="#0f457b"></use><use xlink:href="#SvgjsG1006" transform="translate(68.4, 68.4) scale(1.8)" fill="#0f457b"></use><use xlink:href="#SvgjsG1001" transform="translate(68.4, 102.60000000000001) scale(1.8)" fill="#0f457b"></use><use xlink:href="#SvgjsG1005" transform="translate(68.4, 136.8) scale(1.8)" fill="#0f457b"></use><use xlink:href="#SvgjsG1004" transform="translate(68.4, 171) scale(1.8)" fill="#0f457b"></use><use xlink:href="#SvgjsG1003" transform="translate(68.4, 205.20000000000002) scale(1.8)" fill="#0f457b"></use><use xlink:href="#SvgjsG1001" transform="translate(68.4, 239.40000000000003) scale(1.8)" fill="#0f457b"></use><use xlink:href="#SvgjsG1005" transform="translate(68.4, 273.6) scale(1.8)" fill="#0f457b"></use><use xlink:href="#SvgjsG1001" transform="translate(68.4, 307.8) scale(1.8)" fill="#0f457b"></use><use xlink:href="#SvgjsG1004" transform="translate(102.60000000000001, 0) scale(1.8)" fill="#0f457b"></use><use xlink:href="#SvgjsG1004" transform="translate(102.60000000000001, 34.2) scale(1.8)" fill="#0f457b"></use><use xlink:href="#SvgjsG1001" transform="translate(102.60000000000001, 68.4) scale(1.8)" fill="#0f457b"></use><use xlink:href="#SvgjsG1003" transform="translate(102.60000000000001, 102.60000000000001) scale(1.8)" fill="#0f457b"></use><use xlink:href="#SvgjsG1003" transform="translate(102.60000000000001, 136.8) scale(1.8)" fill="#0f457b"></use><use xlink:href="#SvgjsG1002" transform="translate(102.60000000000001, 171) scale(1.8)" fill="#0f457b"></use><use xlink:href="#SvgjsG1001" transform="translate(102.60000000000001, 205.20000000000002) scale(1.8)" fill="#0f457b"></use><use xlink:href="#SvgjsG1006" transform="translate(102.60000000000001, 239.40000000000003) scale(1.8)" fill="#0f457b"></use><use xlink:href="#SvgjsG1005" transform="translate(102.60000000000001, 273.6) scale(1.8)" fill="#0f457b"></use><use xlink:href="#SvgjsG1005" transform="translate(102.60000000000001, 307.8) scale(1.8)" fill="#0f457b"></use><use xlink:href="#SvgjsG1001" transform="translate(136.8, 0) scale(1.8)" fill="#0f457b"></use><use xlink:href="#SvgjsG1005" transform="translate(136.8, 34.2) scale(1.8)" fill="#0f457b"></use><use xlink:href="#SvgjsG1004" transform="translate(136.8, 68.4) scale(1.8)" fill="#0f457b"></use><use xlink:href="#SvgjsG1001" transform="translate(136.8, 102.60000000000001) scale(1.8)" fill="#0f457b"></use><use xlink:href="#SvgjsG1006" transform="translate(136.8, 136.8) scale(1.8)" fill="#0f457b"></use><use xlink:href="#SvgjsG1003" transform="translate(136.8, 171) scale(1.8)" fill="#0f457b"></use><use xlink:href="#SvgjsG1001" transform="translate(136.8, 205.20000000000002) scale(1.8)" fill="#0f457b"></use><use xlink:href="#SvgjsG1005" transform="translate(136.8, 239.40000000000003) scale(1.8)" fill="#0f457b"></use><use xlink:href="#SvgjsG1001" transform="translate(136.8, 273.6) scale(1.8)" fill="#0f457b"></use><use xlink:href="#SvgjsG1004" transform="translate(136.8, 307.8) scale(1.8)" fill="#0f457b"></use><use xlink:href="#SvgjsG1002" transform="translate(171, 0) scale(1.8)" fill="#0f457b"></use><use xlink:href="#SvgjsG1004" transform="translate(171, 34.2) scale(1.8)" fill="#0f457b"></use><use xlink:href="#SvgjsG1005" transform="translate(171, 68.4) scale(1.8)" fill="#0f457b"></use><use xlink:href="#SvgjsG1005" transform="translate(171, 102.60000000000001) scale(1.8)" fill="#0f457b"></use><use xlink:href="#SvgjsG1001" transform="translate(171, 136.8) scale(1.8)" fill="#0f457b"></use><use xlink:href="#SvgjsG1001" transform="translate(171, 171) scale(1.8)" fill="#0f457b"></use><use xlink:href="#SvgjsG1004" transform="translate(171, 205.20000000000002) scale(1.8)" fill="#0f457b"></use><use xlink:href="#SvgjsG1003" transform="translate(171, 239.40000000000003) scale(1.8)" fill="#0f457b"></use><use xlink:href="#SvgjsG1005" transform="translate(171, 273.6) scale(1.8)" fill="#0f457b"></use><use xlink:href="#SvgjsG1006" transform="translate(171, 307.8) scale(1.8)" fill="#0f457b"></use><use xlink:href="#SvgjsG1003" transform="translate(205.20000000000002, 0) scale(1.8)" fill="#0f457b"></use><use xlink:href="#SvgjsG1002" transform="translate(205.20000000000002, 34.2) scale(1.8)" fill="#0f457b"></use><use xlink:href="#SvgjsG1004" transform="translate(205.20000000000002, 68.4) scale(1.8)" fill="#0f457b"></use><use xlink:href="#SvgjsG1006" transform="translate(205.20000000000002, 102.60000000000001) scale(1.8)" fill="#0f457b"></use><use xlink:href="#SvgjsG1004" transform="translate(205.20000000000002, 136.8) scale(1.8)" fill="#0f457b"></use><use xlink:href="#SvgjsG1002" transform="translate(205.20000000000002, 171) scale(1.8)" fill="#0f457b"></use><use xlink:href="#SvgjsG1004" transform="translate(205.20000000000002, 205.20000000000002) scale(1.8)" fill="#0f457b"></use><use xlink:href="#SvgjsG1001" transform="translate(205.20000000000002, 239.40000000000003) scale(1.8)" fill="#0f457b"></use><use xlink:href="#SvgjsG1004" transform="translate(205.20000000000002, 273.6) scale(1.8)" fill="#0f457b"></use><use xlink:href="#SvgjsG1006" transform="translate(205.20000000000002, 307.8) scale(1.8)" fill="#0f457b"></use><use xlink:href="#SvgjsG1006" transform="translate(239.40000000000003, 0) scale(1.8)" fill="#0f457b"></use><use xlink:href="#SvgjsG1001" transform="translate(239.40000000000003, 34.2) scale(1.8)" fill="#0f457b"></use><use xlink:href="#SvgjsG1005" transform="translate(239.40000000000003, 68.4) scale(1.8)" fill="#0f457b"></use><use xlink:href="#SvgjsG1004" transform="translate(239.40000000000003, 102.60000000000001) scale(1.8)" fill="#0f457b"></use><use xlink:href="#SvgjsG1004" transform="translate(239.40000000000003, 136.8) scale(1.8)" fill="#0f457b"></use><use xlink:href="#SvgjsG1004" transform="translate(239.40000000000003, 171) scale(1.8)" fill="#0f457b"></use><use xlink:href="#SvgjsG1004" transform="translate(239.40000000000003, 205.20000000000002) scale(1.8)" fill="#0f457b"></use><use xlink:href="#SvgjsG1004" transform="translate(239.40000000000003, 239.40000000000003) scale(1.8)" fill="#0f457b"></use><use xlink:href="#SvgjsG1004" transform="translate(239.40000000000003, 273.6) scale(1.8)" fill="#0f457b"></use><use xlink:href="#SvgjsG1003" transform="translate(239.40000000000003, 307.8) scale(1.8)" fill="#0f457b"></use><use xlink:href="#SvgjsG1003" transform="translate(273.6, 0) scale(1.8)" fill="#0f457b"></use><use xlink:href="#SvgjsG1003" transform="translate(273.6, 34.2) scale(1.8)" fill="#0f457b"></use><use xlink:href="#SvgjsG1001" transform="translate(273.6, 68.4) scale(1.8)" fill="#0f457b"></use><use xlink:href="#SvgjsG1003" transform="translate(273.6, 102.60000000000001) scale(1.8)" fill="#0f457b"></use><use xlink:href="#SvgjsG1003" transform="translate(273.6, 136.8) scale(1.8)" fill="#0f457b"></use><use xlink:href="#SvgjsG1006" transform="translate(273.6, 171) scale(1.8)" fill="#0f457b"></use><use xlink:href="#SvgjsG1002" transform="translate(273.6, 205.20000000000002) scale(1.8)" fill="#0f457b"></use><use xlink:href="#SvgjsG1003" transform="translate(273.6, 239.40000000000003) scale(1.8)" fill="#0f457b"></use><use xlink:href="#SvgjsG1001" transform="translate(273.6, 273.6) scale(1.8)" fill="#0f457b"></use><use xlink:href="#SvgjsG1006" transform="translate(273.6, 307.8) scale(1.8)" fill="#0f457b"></use><use xlink:href="#SvgjsG1006" transform="translate(307.8, 0) scale(1.8)" fill="#0f457b"></use><use xlink:href="#SvgjsG1003" transform="translate(307.8, 34.2) scale(1.8)" fill="#0f457b"></use><use xlink:href="#SvgjsG1002" transform="translate(307.8, 68.4) scale(1.8)" fill="#0f457b"></use><use xlink:href="#SvgjsG1003" transform="translate(307.8, 102.60000000000001) scale(1.8)" fill="#0f457b"></use><use xlink:href="#SvgjsG1006" transform="translate(307.8, 136.8) scale(1.8)" fill="#0f457b"></use><use xlink:href="#SvgjsG1001" transform="translate(307.8, 171) scale(1.8)" fill="#0f457b"></use><use xlink:href="#SvgjsG1005" transform="translate(307.8, 205.20000000000002) scale(1.8)" fill="#0f457b"></use><use xlink:href="#SvgjsG1004" transform="translate(307.8, 239.40000000000003) scale(1.8)" fill="#0f457b"></use><use xlink:href="#SvgjsG1006" transform="translate(307.8, 273.6) scale(1.8)" fill="#0f457b"></use><use xlink:href="#SvgjsG1001" transform="translate(307.8, 307.8) scale(1.8)" fill="#0f457b"></use></g></defs></svg>