<svg xmlns="http://www.w3.org/2000/svg" version="1.1" xmlns:xlink="http://www.w3.org/1999/xlink" xmlns:svgjs="http://svgjs.dev/svgjs" width="1440" height="560" preserveAspectRatio="none" viewBox="0 0 1440 560"><g mask="url(&quot;#SvgjsMask1008&quot;)" fill="none"><rect width="1440" height="560" x="0" y="0" fill="#0e2a47"></rect><path d="M-63.28 370.66L-63.28 370.66" stroke="#132e65" stroke-width="1.5"></path><path d="M-63.28 370.66L-72.86 488.05" stroke="#132e65" stroke-width="1.5"></path><path d="M-63.28 370.66L80.76 379.53" stroke="#132e65" stroke-width="1.5"></path><path d="M-72.86 488.05L-72.86 488.05" stroke="#132e65" stroke-width="1.5"></path><path d="M-72.86 488.05L80.76 379.53" stroke="#132e65" stroke-width="1.5"></path><path d="M-72.86 488.05L112.35 537.77" stroke="#132e65" stroke-width="1.5"></path><path d="M-72.86 488.05L47.86 650.72" stroke="#132e65" stroke-width="1.5"></path><path d="M-72.86 488.05L-87.97 711.47" stroke="#132e65" stroke-width="1.5"></path><path d="M-72.86 488.05L210.23 655.76" stroke="#132e65" stroke-width="1.5"></path><path d="M-87.97 711.47L-87.97 711.47" stroke="#132e65" stroke-width="1.5"></path><path d="M-87.97 711.47L47.86 650.72" stroke="#132e65" stroke-width="1.5"></path><path d="M-87.97 711.47L112.35 537.77" stroke="#132e65" stroke-width="1.5"></path><path d="M-87.97 711.47L210.23 655.76" stroke="#132e65" stroke-width="1.5"></path><path d="M-87.97 711.47L-63.28 370.66" stroke="#132e65" stroke-width="1.5"></path><path d="M-87.97 711.47L80.76 379.53" stroke="#132e65" stroke-width="1.5"></path><path d="M80.76 379.53L80.76 379.53" stroke="#132e65" stroke-width="1.5"></path><path d="M80.76 379.53L112.35 537.77" stroke="#132e65" stroke-width="1.5"></path><path d="M80.76 379.53L246.67 395.59" stroke="#132e65" stroke-width="1.5"></path><path d="M80.76 379.53L337.94 363.71" stroke="#132e65" stroke-width="1.5"></path><path d="M112.35 537.77L112.35 537.77" stroke="#132e65" stroke-width="1.5"></path><path d="M112.35 537.77L47.86 650.72" stroke="#132e65" stroke-width="1.5"></path><path d="M112.35 537.77L210.23 655.76" stroke="#132e65" stroke-width="1.5"></path><path d="M47.86 650.72L47.86 650.72" stroke="#132e65" stroke-width="1.5"></path><path d="M246.67 395.59L246.67 395.59" stroke="#132e65" stroke-width="1.5"></path><path d="M246.67 395.59L337.94 363.71" stroke="#132e65" stroke-width="1.5"></path><path d="M246.67 395.59L341.38 502.31" stroke="#132e65" stroke-width="1.5"></path><path d="M210.23 655.76L210.23 655.76" stroke="#132e65" stroke-width="1.5"></path><path d="M210.23 655.76L349.44 648.1" stroke="#132e65" stroke-width="1.5"></path><path d="M210.23 655.76L47.86 650.72" stroke="#132e65" stroke-width="1.5"></path><path d="M337.94 363.71L337.94 363.71" stroke="#132e65" stroke-width="1.5"></path><path d="M337.94 363.71L341.38 502.31" stroke="#132e65" stroke-width="1.5"></path><path d="M337.94 363.71L496.69 345.75" stroke="#132e65" stroke-width="1.5"></path><path d="M337.94 363.71L491.21 540.05" stroke="#132e65" stroke-width="1.5"></path><path d="M341.38 502.31L341.38 502.31" stroke="#132e65" stroke-width="1.5"></path><path d="M341.38 502.31L349.44 648.1" stroke="#132e65" stroke-width="1.5"></path><path d="M349.44 648.1L349.44 648.1" stroke="#132e65" stroke-width="1.5"></path><path d="M349.44 648.1L491.21 540.05" stroke="#132e65" stroke-width="1.5"></path><path d="M496.69 345.75L496.69 345.75" stroke="#132e65" stroke-width="1.5"></path><path d="M496.69 345.75L662.17 357.85" stroke="#132e65" stroke-width="1.5"></path><path d="M496.69 345.75L491.21 540.05" stroke="#132e65" stroke-width="1.5"></path><path d="M491.21 540.05L491.21 540.05" stroke="#132e65" stroke-width="1.5"></path><path d="M491.21 540.05L341.38 502.31" stroke="#132e65" stroke-width="1.5"></path><path d="M491.21 540.05L553.69 690.28" stroke="#132e65" stroke-width="1.5"></path><path d="M491.21 540.05L639.17 644.39" stroke="#132e65" stroke-width="1.5"></path><path d="M553.69 690.28L553.69 690.28" stroke="#132e65" stroke-width="1.5"></path><path d="M553.69 690.28L639.17 644.39" stroke="#132e65" stroke-width="1.5"></path><path d="M662.17 357.85L662.17 357.85" stroke="#132e65" stroke-width="1.5"></path><path d="M662.17 357.85L797.15 364.2" stroke="#132e65" stroke-width="1.5"></path><path d="M662.17 357.85L802.53 253.75" stroke="#132e65" stroke-width="1.5"></path><path d="M662.17 357.85L814.83 518.05" stroke="#132e65" stroke-width="1.5"></path><path d="M662.17 357.85L491.21 540.05" stroke="#132e65" stroke-width="1.5"></path><path d="M639.17 644.39L639.17 644.39" stroke="#132e65" stroke-width="1.5"></path><path d="M639.17 644.39L814.52 705.37" stroke="#132e65" stroke-width="1.5"></path><path d="M639.17 644.39L814.83 518.05" stroke="#132e65" stroke-width="1.5"></path><path d="M639.17 644.39L662.17 357.85" stroke="#132e65" stroke-width="1.5"></path><path d="M639.17 644.39L349.44 648.1" stroke="#132e65" stroke-width="1.5"></path><path d="M802.53 253.75L802.53 253.75" stroke="#132e65" stroke-width="1.5"></path><path d="M802.53 253.75L797.15 364.2" stroke="#132e65" stroke-width="1.5"></path><path d="M802.53 253.75L964.89 226.11" stroke="#132e65" stroke-width="1.5"></path><path d="M802.53 253.75L1004.47 354.35" stroke="#132e65" stroke-width="1.5"></path><path d="M797.15 364.2L797.15 364.2" stroke="#132e65" stroke-width="1.5"></path><path d="M814.83 518.05L814.83 518.05" stroke="#132e65" stroke-width="1.5"></path><path d="M814.83 518.05L950.53 507.75" stroke="#132e65" stroke-width="1.5"></path><path d="M814.83 518.05L797.15 364.2" stroke="#132e65" stroke-width="1.5"></path><path d="M814.52 705.37L814.52 705.37" stroke="#132e65" stroke-width="1.5"></path><path d="M814.52 705.37L814.83 518.05" stroke="#132e65" stroke-width="1.5"></path><path d="M814.52 705.37L1007.19 669.24" stroke="#132e65" stroke-width="1.5"></path><path d="M814.52 705.37L950.53 507.75" stroke="#132e65" stroke-width="1.5"></path><path d="M814.52 705.37L553.69 690.28" stroke="#132e65" stroke-width="1.5"></path><path d="M1001.06 -62.76L1001.06 -62.76" stroke="#132e65" stroke-width="1.5"></path><path d="M1001.06 -62.76L1102.88 -60.5" stroke="#132e65" stroke-width="1.5"></path><path d="M1001.06 -62.76L1090.42 57.21" stroke="#132e65" stroke-width="1.5"></path><path d="M1001.06 -62.76L996.76 95.51" stroke="#132e65" stroke-width="1.5"></path><path d="M1001.06 -62.76L1288.75 -104.08" stroke="#132e65" stroke-width="1.5"></path><path d="M996.76 95.51L996.76 95.51" stroke="#132e65" stroke-width="1.5"></path><path d="M996.76 95.51L1090.42 57.21" stroke="#132e65" stroke-width="1.5"></path><path d="M996.76 95.51L964.89 226.11" stroke="#132e65" stroke-width="1.5"></path><path d="M996.76 95.51L1102.88 -60.5" stroke="#132e65" stroke-width="1.5"></path><path d="M964.89 226.11L964.89 226.11" stroke="#132e65" stroke-width="1.5"></path><path d="M964.89 226.11L1094.32 261.57" stroke="#132e65" stroke-width="1.5"></path><path d="M964.89 226.11L1004.47 354.35" stroke="#132e65" stroke-width="1.5"></path><path d="M1004.47 354.35L1004.47 354.35" stroke="#132e65" stroke-width="1.5"></path><path d="M1004.47 354.35L1127.29 374.96" stroke="#132e65" stroke-width="1.5"></path><path d="M1004.47 354.35L1094.32 261.57" stroke="#132e65" stroke-width="1.5"></path><path d="M1004.47 354.35L950.53 507.75" stroke="#132e65" stroke-width="1.5"></path><path d="M950.53 507.75L950.53 507.75" stroke="#132e65" stroke-width="1.5"></path><path d="M1007.19 669.24L1007.19 669.24" stroke="#132e65" stroke-width="1.5"></path><path d="M1007.19 669.24L1134.34 691.94" stroke="#132e65" stroke-width="1.5"></path><path d="M1007.19 669.24L950.53 507.75" stroke="#132e65" stroke-width="1.5"></path><path d="M1007.19 669.24L1125.14 536.96" stroke="#132e65" stroke-width="1.5"></path><path d="M1007.19 669.24L814.83 518.05" stroke="#132e65" stroke-width="1.5"></path><path d="M1102.88 -60.5L1102.88 -60.5" stroke="#132e65" stroke-width="1.5"></path><path d="M1102.88 -60.5L1090.42 57.21" stroke="#132e65" stroke-width="1.5"></path><path d="M1102.88 -60.5L1288.75 -104.08" stroke="#132e65" stroke-width="1.5"></path><path d="M1102.88 -60.5L1264.52 111.28" stroke="#132e65" stroke-width="1.5"></path><path d="M1102.88 -60.5L1243.73 224.19" stroke="#132e65" stroke-width="1.5"></path><path d="M1090.42 57.21L1090.42 57.21" stroke="#132e65" stroke-width="1.5"></path><path d="M1094.32 261.57L1094.32 261.57" stroke="#132e65" stroke-width="1.5"></path><path d="M1094.32 261.57L1127.29 374.96" stroke="#132e65" stroke-width="1.5"></path><path d="M1127.29 374.96L1127.29 374.96" stroke="#132e65" stroke-width="1.5"></path><path d="M1127.29 374.96L1125.14 536.96" stroke="#132e65" stroke-width="1.5"></path><path d="M1127.29 374.96L1240.22 515.88" stroke="#132e65" stroke-width="1.5"></path><path d="M1127.29 374.96L1309.38 401.22" stroke="#132e65" stroke-width="1.5"></path><path d="M1127.29 374.96L1243.73 224.19" stroke="#132e65" stroke-width="1.5"></path><path d="M1125.14 536.96L1125.14 536.96" stroke="#132e65" stroke-width="1.5"></path><path d="M1125.14 536.96L1240.22 515.88" stroke="#132e65" stroke-width="1.5"></path><path d="M1125.14 536.96L1134.34 691.94" stroke="#132e65" stroke-width="1.5"></path><path d="M1134.34 691.94L1134.34 691.94" stroke="#132e65" stroke-width="1.5"></path><path d="M1134.34 691.94L1278.26 680.64" stroke="#132e65" stroke-width="1.5"></path><path d="M1134.34 691.94L1240.22 515.88" stroke="#132e65" stroke-width="1.5"></path><path d="M1134.34 691.94L950.53 507.75" stroke="#132e65" stroke-width="1.5"></path><path d="M1134.34 691.94L1127.29 374.96" stroke="#132e65" stroke-width="1.5"></path><path d="M1288.75 -104.08L1288.75 -104.08" stroke="#132e65" stroke-width="1.5"></path><path d="M1288.75 -104.08L1424.61 -42.35" stroke="#132e65" stroke-width="1.5"></path><path d="M1264.52 111.28L1264.52 111.28" stroke="#132e65" stroke-width="1.5"></path><path d="M1264.52 111.28L1243.73 224.19" stroke="#132e65" stroke-width="1.5"></path><path d="M1264.52 111.28L1388.3 202.48" stroke="#132e65" stroke-width="1.5"></path><path d="M1264.52 111.28L1433.17 80.93" stroke="#132e65" stroke-width="1.5"></path><path d="M1264.52 111.28L1090.42 57.21" stroke="#132e65" stroke-width="1.5"></path><path d="M1243.73 224.19L1243.73 224.19" stroke="#132e65" stroke-width="1.5"></path><path d="M1243.73 224.19L1388.3 202.48" stroke="#132e65" stroke-width="1.5"></path><path d="M1309.38 401.22L1309.38 401.22" stroke="#132e65" stroke-width="1.5"></path><path d="M1309.38 401.22L1435.66 395.53" stroke="#132e65" stroke-width="1.5"></path><path d="M1309.38 401.22L1398.82 495.68" stroke="#132e65" stroke-width="1.5"></path><path d="M1309.38 401.22L1240.22 515.88" stroke="#132e65" stroke-width="1.5"></path><path d="M1309.38 401.22L1243.73 224.19" stroke="#132e65" stroke-width="1.5"></path><path d="M1309.38 401.22L1388.3 202.48" stroke="#132e65" stroke-width="1.5"></path><path d="M1240.22 515.88L1240.22 515.88" stroke="#132e65" stroke-width="1.5"></path><path d="M1240.22 515.88L1398.82 495.68" stroke="#132e65" stroke-width="1.5"></path><path d="M1240.22 515.88L1278.26 680.64" stroke="#132e65" stroke-width="1.5"></path><path d="M1278.26 680.64L1278.26 680.64" stroke="#132e65" stroke-width="1.5"></path><path d="M1278.26 680.64L1125.14 536.96" stroke="#132e65" stroke-width="1.5"></path><path d="M1424.61 -42.35L1424.61 -42.35" stroke="#132e65" stroke-width="1.5"></path><path d="M1424.61 -42.35L1433.17 80.93" stroke="#132e65" stroke-width="1.5"></path><path d="M1424.61 -42.35L1577.14 -47.69" stroke="#132e65" stroke-width="1.5"></path><path d="M1433.17 80.93L1433.17 80.93" stroke="#132e65" stroke-width="1.5"></path><path d="M1433.17 80.93L1555.72 64.28" stroke="#132e65" stroke-width="1.5"></path><path d="M1433.17 80.93L1388.3 202.48" stroke="#132e65" stroke-width="1.5"></path><path d="M1433.17 80.93L1544.36 208.48" stroke="#132e65" stroke-width="1.5"></path><path d="M1388.3 202.48L1388.3 202.48" stroke="#132e65" stroke-width="1.5"></path><path d="M1388.3 202.48L1544.36 208.48" stroke="#132e65" stroke-width="1.5"></path><path d="M1388.3 202.48L1435.66 395.53" stroke="#132e65" stroke-width="1.5"></path><path d="M1435.66 395.53L1435.66 395.53" stroke="#132e65" stroke-width="1.5"></path><path d="M1435.66 395.53L1540.59 412.19" stroke="#132e65" stroke-width="1.5"></path><path d="M1435.66 395.53L1398.82 495.68" stroke="#132e65" stroke-width="1.5"></path><path d="M1435.66 395.53L1570.18 493" stroke="#132e65" stroke-width="1.5"></path><path d="M1398.82 495.68L1398.82 495.68" stroke="#132e65" stroke-width="1.5"></path><path d="M1577.14 -47.69L1577.14 -47.69" stroke="#132e65" stroke-width="1.5"></path><path d="M1577.14 -47.69L1555.72 64.28" stroke="#132e65" stroke-width="1.5"></path><path d="M1555.72 64.28L1555.72 64.28" stroke="#132e65" stroke-width="1.5"></path><path d="M1555.72 64.28L1544.36 208.48" stroke="#132e65" stroke-width="1.5"></path><path d="M1544.36 208.48L1544.36 208.48" stroke="#132e65" stroke-width="1.5"></path><path d="M1544.36 208.48L1540.59 412.19" stroke="#132e65" stroke-width="1.5"></path><path d="M1540.59 412.19L1540.59 412.19" stroke="#132e65" stroke-width="1.5"></path><path d="M1540.59 412.19L1570.18 493" stroke="#132e65" stroke-width="1.5"></path><path d="M1540.59 412.19L1398.82 495.68" stroke="#132e65" stroke-width="1.5"></path><path d="M1570.18 493L1570.18 493" stroke="#132e65" stroke-width="1.5"></path><path d="M1570.18 493L1398.82 495.68" stroke="#132e65" stroke-width="1.5"></path><path d="M1570.18 493L1594.84 672.77" stroke="#132e65" stroke-width="1.5"></path><path d="M1594.84 672.77L1594.84 672.77" stroke="#132e65" stroke-width="1.5"></path><path d="M1594.84 672.77L1398.82 495.68" stroke="#132e65" stroke-width="1.5"></path><circle r="5" cx="-63.28" cy="370.66" fill="#132e65"></circle><circle r="5" cx="-72.86" cy="488.05" fill="#132e65"></circle><circle r="5" cx="-87.97" cy="711.47" fill="#132e65"></circle><circle r="5" cx="80.76" cy="379.53" fill="#132e65"></circle><circle r="5" cx="112.35" cy="537.77" fill="#132e65"></circle><circle r="5" cx="47.86" cy="650.72" fill="#132e65"></circle><circle r="5" cx="246.67" cy="395.59" fill="#132e65"></circle><circle r="5" cx="210.23" cy="655.76" fill="#132e65"></circle><circle r="5" cx="337.94" cy="363.71" fill="#132e65"></circle><circle r="5" cx="341.38" cy="502.31" fill="#132e65"></circle><circle r="5" cx="349.44" cy="648.1" fill="#132e65"></circle><circle r="5" cx="496.69" cy="345.75" fill="#132e65"></circle><circle r="5" cx="491.21" cy="540.05" fill="#132e65"></circle><circle r="5" cx="553.69" cy="690.28" fill="#132e65"></circle><circle r="5" cx="662.17" cy="357.85" fill="#132e65"></circle><circle r="5" cx="639.17" cy="644.39" fill="#132e65"></circle><circle r="5" cx="802.53" cy="253.75" fill="#132e65"></circle><circle r="5" cx="797.15" cy="364.2" fill="#132e65"></circle><circle r="5" cx="814.83" cy="518.05" fill="#132e65"></circle><circle r="5" cx="814.52" cy="705.37" fill="#132e65"></circle><circle r="5" cx="1001.06" cy="-62.76" fill="#132e65"></circle><circle r="5" cx="996.76" cy="95.51" fill="#132e65"></circle><circle r="5" cx="964.89" cy="226.11" fill="#132e65"></circle><circle r="5" cx="1004.47" cy="354.35" fill="#132e65"></circle><circle r="5" cx="950.53" cy="507.75" fill="#132e65"></circle><circle r="5" cx="1007.19" cy="669.24" fill="#132e65"></circle><circle r="5" cx="1102.88" cy="-60.5" fill="#132e65"></circle><circle r="5" cx="1090.42" cy="57.21" fill="#132e65"></circle><circle r="5" cx="1094.32" cy="261.57" fill="#132e65"></circle><circle r="5" cx="1127.29" cy="374.96" fill="#132e65"></circle><circle r="5" cx="1125.14" cy="536.96" fill="#132e65"></circle><circle r="5" cx="1134.34" cy="691.94" fill="#132e65"></circle><circle r="5" cx="1288.75" cy="-104.08" fill="#132e65"></circle><circle r="5" cx="1264.52" cy="111.28" fill="#132e65"></circle><circle r="5" cx="1243.73" cy="224.19" fill="#132e65"></circle><circle r="5" cx="1309.38" cy="401.22" fill="#132e65"></circle><circle r="5" cx="1240.22" cy="515.88" fill="#132e65"></circle><circle r="5" cx="1278.26" cy="680.64" fill="#132e65"></circle><circle r="5" cx="1424.61" cy="-42.35" fill="#132e65"></circle><circle r="5" cx="1433.17" cy="80.93" fill="#132e65"></circle><circle r="5" cx="1388.3" cy="202.48" fill="#132e65"></circle><circle r="5" cx="1435.66" cy="395.53" fill="#132e65"></circle><circle r="5" cx="1398.82" cy="495.68" fill="#132e65"></circle><circle r="5" cx="1577.14" cy="-47.69" fill="#132e65"></circle><circle r="5" cx="1555.72" cy="64.28" fill="#132e65"></circle><circle r="5" cx="1544.36" cy="208.48" fill="#132e65"></circle><circle r="5" cx="1540.59" cy="412.19" fill="#132e65"></circle><circle r="5" cx="1570.18" cy="493" fill="#132e65"></circle><circle r="5" cx="1594.84" cy="672.77" fill="#132e65"></circle><path d="M-108.88 536.6L-108.88 536.6" stroke="hsl(228.5, 77.2%, 51.5%)" stroke-width="1.5"></path><path d="M-108.88 536.6L-83.73 642.57" stroke="hsl(228.5, 77.2%, 51.5%)" stroke-width="1.5"></path><path d="M-108.88 536.6L53.99 494.26" stroke="hsl(228.5, 77.2%, 51.5%)" stroke-width="1.5"></path><path d="M-108.88 536.6L78.95 692.8" stroke="hsl(228.5, 77.2%, 51.5%)" stroke-width="1.5"></path><path d="M-108.88 536.6L201.69 541.85" stroke="hsl(228.5, 77.2%, 51.5%)" stroke-width="1.5"></path><path d="M-108.88 536.6L238.31 639.07" stroke="hsl(228.5, 77.2%, 51.5%)" stroke-width="1.5"></path><path d="M238.31 639.07L238.31 639.07" stroke="hsl(228.5, 77.2%, 51.5%)" stroke-width="1.5"></path><path d="M238.31 639.07L201.69 541.85" stroke="hsl(228.5, 77.2%, 51.5%)" stroke-width="1.5"></path><path d="M238.31 639.07L370.69 650.03" stroke="hsl(228.5, 77.2%, 51.5%)" stroke-width="1.5"></path><path d="M238.31 639.07L78.95 692.8" stroke="hsl(228.5, 77.2%, 51.5%)" stroke-width="1.5"></path><path d="M238.31 639.07L410.47 556.84" stroke="hsl(228.5, 77.2%, 51.5%)" stroke-width="1.5"></path><path d="M410.47 556.84L410.47 556.84" stroke="hsl(228.5, 77.2%, 51.5%)" stroke-width="1.5"></path><path d="M410.47 556.84L370.69 650.03" stroke="hsl(228.5, 77.2%, 51.5%)" stroke-width="1.5"></path><path d="M410.47 556.84L554.5 540.21" stroke="hsl(228.5, 77.2%, 51.5%)" stroke-width="1.5"></path><path d="M410.47 556.84L534.26 660.58" stroke="hsl(228.5, 77.2%, 51.5%)" stroke-width="1.5"></path><path d="M370.69 650.03L370.69 650.03" stroke="hsl(228.5, 77.2%, 51.5%)" stroke-width="1.5"></path><path d="M370.69 650.03L534.26 660.58" stroke="hsl(228.5, 77.2%, 51.5%)" stroke-width="1.5"></path><path d="M370.69 650.03L201.69 541.85" stroke="hsl(228.5, 77.2%, 51.5%)" stroke-width="1.5"></path><path d="M370.69 650.03L554.5 540.21" stroke="hsl(228.5, 77.2%, 51.5%)" stroke-width="1.5"></path><path d="M534.26 660.58L534.26 660.58" stroke="hsl(228.5, 77.2%, 51.5%)" stroke-width="1.5"></path><path d="M534.26 660.58L554.5 540.21" stroke="hsl(228.5, 77.2%, 51.5%)" stroke-width="1.5"></path><path d="M534.26 660.58L687.64 664.89" stroke="hsl(228.5, 77.2%, 51.5%)" stroke-width="1.5"></path><path d="M534.26 660.58L683.96 532.17" stroke="hsl(228.5, 77.2%, 51.5%)" stroke-width="1.5"></path><path d="M534.26 660.58L514.78 404.58" stroke="hsl(228.5, 77.2%, 51.5%)" stroke-width="1.5"></path><path d="M687.64 664.89L687.64 664.89" stroke="hsl(228.5, 77.2%, 51.5%)" stroke-width="1.5"></path><path d="M687.64 664.89L816.54 680.97" stroke="hsl(228.5, 77.2%, 51.5%)" stroke-width="1.5"></path><path d="M687.64 664.89L683.96 532.17" stroke="hsl(228.5, 77.2%, 51.5%)" stroke-width="1.5"></path><path d="M1143.31 360.29L1143.31 360.29" stroke="hsl(228.5, 77.2%, 51.5%)" stroke-width="1.5"></path><path d="M1143.31 360.29L1248.98 403.47" stroke="hsl(228.5, 77.2%, 51.5%)" stroke-width="1.5"></path><path d="M1143.31 360.29L1090.19 502.01" stroke="hsl(228.5, 77.2%, 51.5%)" stroke-width="1.5"></path><path d="M1280.73 -77.53L1280.73 -77.53" stroke="hsl(228.5, 77.2%, 51.5%)" stroke-width="1.5"></path><path d="M1280.73 -77.53L1273.33 59.89" stroke="hsl(228.5, 77.2%, 51.5%)" stroke-width="1.5"></path><path d="M1280.73 -77.53L1434.55 -60.49" stroke="hsl(228.5, 77.2%, 51.5%)" stroke-width="1.5"></path><path d="M1280.73 -77.53L1396.32 105.87" stroke="hsl(228.5, 77.2%, 51.5%)" stroke-width="1.5"></path><path d="M1280.73 -77.53L1264.15 221.5" stroke="hsl(228.5, 77.2%, 51.5%)" stroke-width="1.5"></path><path d="M1273.33 59.89L1273.33 59.89" stroke="hsl(228.5, 77.2%, 51.5%)" stroke-width="1.5"></path><path d="M1273.33 59.89L1396.32 105.87" stroke="hsl(228.5, 77.2%, 51.5%)" stroke-width="1.5"></path><path d="M1273.33 59.89L1264.15 221.5" stroke="hsl(228.5, 77.2%, 51.5%)" stroke-width="1.5"></path><path d="M1273.33 59.89L1123.11 189.48" stroke="hsl(228.5, 77.2%, 51.5%)" stroke-width="1.5"></path><path d="M1273.33 59.89L1434.55 -60.49" stroke="hsl(228.5, 77.2%, 51.5%)" stroke-width="1.5"></path><path d="M1273.33 59.89L1434.58 224.57" stroke="hsl(228.5, 77.2%, 51.5%)" stroke-width="1.5"></path><path d="M1264.15 221.5L1264.15 221.5" stroke="hsl(228.5, 77.2%, 51.5%)" stroke-width="1.5"></path><path d="M1264.15 221.5L1123.11 189.48" stroke="hsl(228.5, 77.2%, 51.5%)" stroke-width="1.5"></path><path d="M1264.15 221.5L1434.58 224.57" stroke="hsl(228.5, 77.2%, 51.5%)" stroke-width="1.5"></path><path d="M1264.15 221.5L1396.32 105.87" stroke="hsl(228.5, 77.2%, 51.5%)" stroke-width="1.5"></path><path d="M1264.15 221.5L1248.98 403.47" stroke="hsl(228.5, 77.2%, 51.5%)" stroke-width="1.5"></path><path d="M1558.01 681.46L1558.01 681.46" stroke="hsl(228.5, 77.2%, 51.5%)" stroke-width="1.5"></path><path d="M1558.01 681.46L1544.37 538.83" stroke="hsl(228.5, 77.2%, 51.5%)" stroke-width="1.5"></path><path d="M1558.01 681.46L1399.72 670.22" stroke="hsl(228.5, 77.2%, 51.5%)" stroke-width="1.5"></path><path d="M1558.01 681.46L1442.55 530.94" stroke="hsl(228.5, 77.2%, 51.5%)" stroke-width="1.5"></path><path d="M1558.01 681.46L1602.91 386.53" stroke="hsl(228.5, 77.2%, 51.5%)" stroke-width="1.5"></path><path d="M1558.01 681.46L1246.05 703.3" stroke="hsl(228.5, 77.2%, 51.5%)" stroke-width="1.5"></path><path d="M-83.73 642.57L-83.73 642.57" stroke="hsl(228.5, 77.2%, 51.5%)" stroke-width="1.5"></path><path d="M-83.73 642.57L78.95 692.8" stroke="hsl(228.5, 77.2%, 51.5%)" stroke-width="1.5"></path><path d="M53.99 494.26L53.99 494.26" stroke="hsl(228.5, 77.2%, 51.5%)" stroke-width="1.5"></path><path d="M53.99 494.26L201.69 541.85" stroke="hsl(228.5, 77.2%, 51.5%)" stroke-width="1.5"></path><path d="M78.95 692.8L78.95 692.8" stroke="hsl(228.5, 77.2%, 51.5%)" stroke-width="1.5"></path><path d="M78.95 692.8L201.69 541.85" stroke="hsl(228.5, 77.2%, 51.5%)" stroke-width="1.5"></path><path d="M78.95 692.8L53.99 494.26" stroke="hsl(228.5, 77.2%, 51.5%)" stroke-width="1.5"></path><path d="M201.69 541.85L201.69 541.85" stroke="hsl(228.5, 77.2%, 51.5%)" stroke-width="1.5"></path><path d="M514.78 404.58L514.78 404.58" stroke="hsl(228.5, 77.2%, 51.5%)" stroke-width="1.5"></path><path d="M514.78 404.58L554.5 540.21" stroke="hsl(228.5, 77.2%, 51.5%)" stroke-width="1.5"></path><path d="M514.78 404.58L410.47 556.84" stroke="hsl(228.5, 77.2%, 51.5%)" stroke-width="1.5"></path><path d="M514.78 404.58L683.96 532.17" stroke="hsl(228.5, 77.2%, 51.5%)" stroke-width="1.5"></path><path d="M554.5 540.21L554.5 540.21" stroke="hsl(228.5, 77.2%, 51.5%)" stroke-width="1.5"></path><path d="M554.5 540.21L683.96 532.17" stroke="hsl(228.5, 77.2%, 51.5%)" stroke-width="1.5"></path><path d="M554.5 540.21L687.64 664.89" stroke="hsl(228.5, 77.2%, 51.5%)" stroke-width="1.5"></path><path d="M683.96 532.17L683.96 532.17" stroke="hsl(228.5, 77.2%, 51.5%)" stroke-width="1.5"></path><path d="M683.96 532.17L816.54 680.97" stroke="hsl(228.5, 77.2%, 51.5%)" stroke-width="1.5"></path><path d="M683.96 532.17L826.27 352.76" stroke="hsl(228.5, 77.2%, 51.5%)" stroke-width="1.5"></path><path d="M826.27 352.76L826.27 352.76" stroke="hsl(228.5, 77.2%, 51.5%)" stroke-width="1.5"></path><path d="M826.27 352.76L968.45 522.51" stroke="hsl(228.5, 77.2%, 51.5%)" stroke-width="1.5"></path><path d="M826.27 352.76L1090.19 502.01" stroke="hsl(228.5, 77.2%, 51.5%)" stroke-width="1.5"></path><path d="M826.27 352.76L514.78 404.58" stroke="hsl(228.5, 77.2%, 51.5%)" stroke-width="1.5"></path><path d="M816.54 680.97L816.54 680.97" stroke="hsl(228.5, 77.2%, 51.5%)" stroke-width="1.5"></path><path d="M816.54 680.97L1000.8 662.36" stroke="hsl(228.5, 77.2%, 51.5%)" stroke-width="1.5"></path><path d="M816.54 680.97L968.45 522.51" stroke="hsl(228.5, 77.2%, 51.5%)" stroke-width="1.5"></path><path d="M816.54 680.97L534.26 660.58" stroke="hsl(228.5, 77.2%, 51.5%)" stroke-width="1.5"></path><path d="M816.54 680.97L554.5 540.21" stroke="hsl(228.5, 77.2%, 51.5%)" stroke-width="1.5"></path><path d="M968.45 522.51L968.45 522.51" stroke="hsl(228.5, 77.2%, 51.5%)" stroke-width="1.5"></path><path d="M968.45 522.51L1090.19 502.01" stroke="hsl(228.5, 77.2%, 51.5%)" stroke-width="1.5"></path><path d="M968.45 522.51L1000.8 662.36" stroke="hsl(228.5, 77.2%, 51.5%)" stroke-width="1.5"></path><path d="M1000.8 662.36L1000.8 662.36" stroke="hsl(228.5, 77.2%, 51.5%)" stroke-width="1.5"></path><path d="M1000.8 662.36L1161.07 658.91" stroke="hsl(228.5, 77.2%, 51.5%)" stroke-width="1.5"></path><path d="M1123.11 189.48L1123.11 189.48" stroke="hsl(228.5, 77.2%, 51.5%)" stroke-width="1.5"></path><path d="M1090.19 502.01L1090.19 502.01" stroke="hsl(228.5, 77.2%, 51.5%)" stroke-width="1.5"></path><path d="M1090.19 502.01L1257.06 510.4" stroke="hsl(228.5, 77.2%, 51.5%)" stroke-width="1.5"></path><path d="M1161.07 658.91L1161.07 658.91" stroke="hsl(228.5, 77.2%, 51.5%)" stroke-width="1.5"></path><path d="M1161.07 658.91L1246.05 703.3" stroke="hsl(228.5, 77.2%, 51.5%)" stroke-width="1.5"></path><path d="M1248.98 403.47L1248.98 403.47" stroke="hsl(228.5, 77.2%, 51.5%)" stroke-width="1.5"></path><path d="M1248.98 403.47L1257.06 510.4" stroke="hsl(228.5, 77.2%, 51.5%)" stroke-width="1.5"></path><path d="M1257.06 510.4L1257.06 510.4" stroke="hsl(228.5, 77.2%, 51.5%)" stroke-width="1.5"></path><path d="M1246.05 703.3L1246.05 703.3" stroke="hsl(228.5, 77.2%, 51.5%)" stroke-width="1.5"></path><path d="M1246.05 703.3L1399.72 670.22" stroke="hsl(228.5, 77.2%, 51.5%)" stroke-width="1.5"></path><path d="M1246.05 703.3L1257.06 510.4" stroke="hsl(228.5, 77.2%, 51.5%)" stroke-width="1.5"></path><path d="M1246.05 703.3L1000.8 662.36" stroke="hsl(228.5, 77.2%, 51.5%)" stroke-width="1.5"></path><path d="M1434.55 -60.49L1434.55 -60.49" stroke="hsl(228.5, 77.2%, 51.5%)" stroke-width="1.5"></path><path d="M1434.55 -60.49L1588.82 -90.8" stroke="hsl(228.5, 77.2%, 51.5%)" stroke-width="1.5"></path><path d="M1434.55 -60.49L1396.32 105.87" stroke="hsl(228.5, 77.2%, 51.5%)" stroke-width="1.5"></path><path d="M1434.55 -60.49L1570.04 47.26" stroke="hsl(228.5, 77.2%, 51.5%)" stroke-width="1.5"></path><path d="M1396.32 105.87L1396.32 105.87" stroke="hsl(228.5, 77.2%, 51.5%)" stroke-width="1.5"></path><path d="M1396.32 105.87L1434.58 224.57" stroke="hsl(228.5, 77.2%, 51.5%)" stroke-width="1.5"></path><path d="M1434.58 224.57L1434.58 224.57" stroke="hsl(228.5, 77.2%, 51.5%)" stroke-width="1.5"></path><path d="M1434.58 224.57L1588.06 212.33" stroke="hsl(228.5, 77.2%, 51.5%)" stroke-width="1.5"></path><path d="M1434.58 224.57L1403.29 387.84" stroke="hsl(228.5, 77.2%, 51.5%)" stroke-width="1.5"></path><path d="M1434.58 224.57L1570.04 47.26" stroke="hsl(228.5, 77.2%, 51.5%)" stroke-width="1.5"></path><path d="M1403.29 387.84L1403.29 387.84" stroke="hsl(228.5, 77.2%, 51.5%)" stroke-width="1.5"></path><path d="M1403.29 387.84L1442.55 530.94" stroke="hsl(228.5, 77.2%, 51.5%)" stroke-width="1.5"></path><path d="M1403.29 387.84L1248.98 403.47" stroke="hsl(228.5, 77.2%, 51.5%)" stroke-width="1.5"></path><path d="M1403.29 387.84L1257.06 510.4" stroke="hsl(228.5, 77.2%, 51.5%)" stroke-width="1.5"></path><path d="M1403.29 387.84L1602.91 386.53" stroke="hsl(228.5, 77.2%, 51.5%)" stroke-width="1.5"></path><path d="M1442.55 530.94L1442.55 530.94" stroke="hsl(228.5, 77.2%, 51.5%)" stroke-width="1.5"></path><path d="M1442.55 530.94L1544.37 538.83" stroke="hsl(228.5, 77.2%, 51.5%)" stroke-width="1.5"></path><path d="M1442.55 530.94L1399.72 670.22" stroke="hsl(228.5, 77.2%, 51.5%)" stroke-width="1.5"></path><path d="M1399.72 670.22L1399.72 670.22" stroke="hsl(228.5, 77.2%, 51.5%)" stroke-width="1.5"></path><path d="M1588.82 -90.8L1588.82 -90.8" stroke="hsl(228.5, 77.2%, 51.5%)" stroke-width="1.5"></path><path d="M1588.82 -90.8L1570.04 47.26" stroke="hsl(228.5, 77.2%, 51.5%)" stroke-width="1.5"></path><path d="M1588.82 -90.8L1396.32 105.87" stroke="hsl(228.5, 77.2%, 51.5%)" stroke-width="1.5"></path><path d="M1588.82 -90.8L1588.06 212.33" stroke="hsl(228.5, 77.2%, 51.5%)" stroke-width="1.5"></path><path d="M1588.82 -90.8L1280.73 -77.53" stroke="hsl(228.5, 77.2%, 51.5%)" stroke-width="1.5"></path><path d="M1588.82 -90.8L1273.33 59.89" stroke="hsl(228.5, 77.2%, 51.5%)" stroke-width="1.5"></path><path d="M1570.04 47.26L1570.04 47.26" stroke="hsl(228.5, 77.2%, 51.5%)" stroke-width="1.5"></path><path d="M1570.04 47.26L1588.06 212.33" stroke="hsl(228.5, 77.2%, 51.5%)" stroke-width="1.5"></path><path d="M1570.04 47.26L1396.32 105.87" stroke="hsl(228.5, 77.2%, 51.5%)" stroke-width="1.5"></path><path d="M1570.04 47.26L1273.33 59.89" stroke="hsl(228.5, 77.2%, 51.5%)" stroke-width="1.5"></path><path d="M1588.06 212.33L1588.06 212.33" stroke="hsl(228.5, 77.2%, 51.5%)" stroke-width="1.5"></path><path d="M1602.91 386.53L1602.91 386.53" stroke="hsl(228.5, 77.2%, 51.5%)" stroke-width="1.5"></path><path d="M1602.91 386.53L1544.37 538.83" stroke="hsl(228.5, 77.2%, 51.5%)" stroke-width="1.5"></path><path d="M1602.91 386.53L1588.06 212.33" stroke="hsl(228.5, 77.2%, 51.5%)" stroke-width="1.5"></path><path d="M1544.37 538.83L1544.37 538.83" stroke="hsl(228.5, 77.2%, 51.5%)" stroke-width="1.5"></path><circle r="25" cx="-108.88" cy="536.6" fill="url(&quot;#SvgjsRadialGradient1009&quot;)"></circle><circle r="25" cx="238.31" cy="639.07" fill="url(&quot;#SvgjsRadialGradient1009&quot;)"></circle><circle r="25" cx="410.47" cy="556.84" fill="url(&quot;#SvgjsRadialGradient1009&quot;)"></circle><circle r="25" cx="370.69" cy="650.03" fill="url(&quot;#SvgjsRadialGradient1009&quot;)"></circle><circle r="25" cx="534.26" cy="660.58" fill="url(&quot;#SvgjsRadialGradient1009&quot;)"></circle><circle r="25" cx="687.64" cy="664.89" fill="url(&quot;#SvgjsRadialGradient1009&quot;)"></circle><circle r="25" cx="1143.31" cy="360.29" fill="url(&quot;#SvgjsRadialGradient1009&quot;)"></circle><circle r="25" cx="1280.73" cy="-77.53" fill="url(&quot;#SvgjsRadialGradient1009&quot;)"></circle><circle r="25" cx="1273.33" cy="59.89" fill="url(&quot;#SvgjsRadialGradient1009&quot;)"></circle><circle r="25" cx="1264.15" cy="221.5" fill="url(&quot;#SvgjsRadialGradient1009&quot;)"></circle><circle r="25" cx="1558.01" cy="681.46" fill="url(&quot;#SvgjsRadialGradient1009&quot;)"></circle><circle r="5" cx="-83.73" cy="642.57" fill="#8b9ad9"></circle><circle r="5" cx="53.99" cy="494.26" fill="#8b9ad9"></circle><circle r="5" cx="78.95" cy="692.8" fill="#8b9ad9"></circle><circle r="5" cx="201.69" cy="541.85" fill="#8b9ad9"></circle><circle r="5" cx="514.78" cy="404.58" fill="#8b9ad9"></circle><circle r="5" cx="554.5" cy="540.21" fill="#8b9ad9"></circle><circle r="5" cx="683.96" cy="532.17" fill="#8b9ad9"></circle><circle r="5" cx="826.27" cy="352.76" fill="#8b9ad9"></circle><circle r="5" cx="816.54" cy="680.97" fill="#8b9ad9"></circle><circle r="5" cx="968.45" cy="522.51" fill="#8b9ad9"></circle><circle r="5" cx="1000.8" cy="662.36" fill="#8b9ad9"></circle><circle r="5" cx="1123.11" cy="189.48" fill="#8b9ad9"></circle><circle r="5" cx="1090.19" cy="502.01" fill="#8b9ad9"></circle><circle r="5" cx="1161.07" cy="658.91" fill="#8b9ad9"></circle><circle r="5" cx="1248.98" cy="403.47" fill="#8b9ad9"></circle><circle r="5" cx="1257.06" cy="510.4" fill="#8b9ad9"></circle><circle r="5" cx="1246.05" cy="703.3" fill="#8b9ad9"></circle><circle r="5" cx="1434.55" cy="-60.49" fill="#8b9ad9"></circle><circle r="5" cx="1396.32" cy="105.87" fill="#8b9ad9"></circle><circle r="5" cx="1434.58" cy="224.57" fill="#8b9ad9"></circle><circle r="5" cx="1403.29" cy="387.84" fill="#8b9ad9"></circle><circle r="5" cx="1442.55" cy="530.94" fill="#8b9ad9"></circle><circle r="5" cx="1399.72" cy="670.22" fill="#8b9ad9"></circle><circle r="5" cx="1588.82" cy="-90.8" fill="#8b9ad9"></circle><circle r="5" cx="1570.04" cy="47.26" fill="#8b9ad9"></circle><circle r="5" cx="1588.06" cy="212.33" fill="#8b9ad9"></circle><circle r="5" cx="1602.91" cy="386.53" fill="#8b9ad9"></circle><circle r="5" cx="1544.37" cy="538.83" fill="#8b9ad9"></circle></g><defs><mask id="SvgjsMask1008"><rect width="1440" height="560" fill="#ffffff"></rect></mask><radialGradient id="SvgjsRadialGradient1009"><stop stop-color="#ffffff" offset="0.1"></stop><stop stop-color="#1735b3" offset="0.2"></stop><stop stop-color="rgba(23, 53, 179, 0)" offset="1"></stop></radialGradient></defs></svg>